HIERARCHY
ROOT mixamorig:Hips
{
	OFFSET -0.000008 104.274872 1.554316
	CHANNELS 6 Xposition Yposition Zposition Xrotation Yrotation Zrotation
	JOINT mixamorig:Spine
	{
		OFFSET -0.000005 10.181595 0.131519
		CHANNELS 6 Xposition Yposition Zposition Xrotation Yrotation Zrotation
		JOINT mixamorig:Spine1
		{
			OFFSET -0.000000 9.893959 -1.470707
			CHANNELS 6 Xposition Yposition Zposition Xrotation Yrotation Zrotation
			JOINT mixamorig:Spine2
			{
				OFFSET -0.000000 9.220757 -1.370641
				CHANNELS 6 Xposition Yposition Zposition Xrotation Yrotation Zrotation
				JOINT mixamorig:Neck
				{
					OFFSET 0.000001 16.740417 -2.049036
					CHANNELS 6 Xposition Yposition Zposition Xrotation Yrotation Zrotation
					JOINT mixamorig:Head
					{
						OFFSET 0.000000 9.617874 1.685006
						CHANNELS 6 Xposition Yposition Zposition Xrotation Yrotation Zrotation
						JOINT mixamorig:HeadTop_End
						{
							OFFSET 0.000002 22.037354 7.501101
							CHANNELS 6 Xposition Yposition Zposition Xrotation Yrotation Zrotation
							End Site
							{
								OFFSET 0.000168 2310.654297 -282.823242
							}
						}
					}
				}
				JOINT mixamorig:RightShoulder
				{
					OFFSET -4.569970 11.014908 -2.160885
					CHANNELS 6 Xposition Yposition Zposition Xrotation Yrotation Zrotation
					JOINT mixamorig:RightArm
					{
						OFFSET -10.592851 -0.524811 -2.232101
						CHANNELS 6 Xposition Yposition Zposition Xrotation Yrotation Zrotation
						JOINT mixamorig:RightForeArm
						{
							OFFSET -27.841511 0.000031 -0.000004
							CHANNELS 6 Xposition Yposition Zposition Xrotation Yrotation Zrotation
							JOINT mixamorig:RightHand
							{
								OFFSET -28.328831 -0.000015 0.000015
								CHANNELS 6 Xposition Yposition Zposition Xrotation Yrotation Zrotation
								JOINT mixamorig:RightHandThumb1
								{
									OFFSET -2.464806 -1.573990 2.681852
									CHANNELS 6 Xposition Yposition Zposition Xrotation Yrotation Zrotation
									JOINT mixamorig:RightHandThumb2
									{
										OFFSET -3.215179 -1.872803 1.924282
										CHANNELS 6 Xposition Yposition Zposition Xrotation Yrotation Zrotation
										JOINT mixamorig:RightHandThumb3
										{
											OFFSET -2.654831 -1.527969 1.512609
											CHANNELS 6 Xposition Yposition Zposition Xrotation Yrotation Zrotation
											JOINT mixamorig:RightHandThumb4
											{
												OFFSET -2.018814 -1.152008 1.108052
												CHANNELS 6 Xposition Yposition Zposition Xrotation Yrotation Zrotation
												End Site
												{
													OFFSET -188.809540 -114.533607 132.431396
												}
											}
										}
									}
								}
								JOINT mixamorig:RightHandIndex1
								{
									OFFSET -9.108284 -0.517868 2.259835
									CHANNELS 6 Xposition Yposition Zposition Xrotation Yrotation Zrotation
									JOINT mixamorig:RightHandIndex2
									{
										OFFSET -3.699989 0.000000 0.001215
										CHANNELS 6 Xposition Yposition Zposition Xrotation Yrotation Zrotation
										JOINT mixamorig:RightHandIndex3
										{
											OFFSET -2.850006 0.000031 -0.000522
											CHANNELS 6 Xposition Yposition Zposition Xrotation Yrotation Zrotation
											JOINT mixamorig:RightHandIndex4
											{
												OFFSET -2.772186 -0.000015 -0.000020
												CHANNELS 6 Xposition Yposition Zposition Xrotation Yrotation Zrotation
												End Site
												{
													OFFSET -277.218445 0.000000 -0.050231
												}
											}
										}
									}
								}
								JOINT mixamorig:RightHandMiddle1
								{
									OFFSET -9.532516 -0.000031 -0.000023
									CHANNELS 6 Xposition Yposition Zposition Xrotation Yrotation Zrotation
									JOINT mixamorig:RightHandMiddle2
									{
										OFFSET -3.700005 -0.000015 0.003713
										CHANNELS 6 Xposition Yposition Zposition Xrotation Yrotation Zrotation
										JOINT mixamorig:RightHandMiddle3
										{
											OFFSET -2.949974 0.000015 -0.002054
											CHANNELS 6 Xposition Yposition Zposition Xrotation Yrotation Zrotation
											JOINT mixamorig:RightHandMiddle4
											{
												OFFSET -2.946640 0.000000 -0.000156
												CHANNELS 6 Xposition Yposition Zposition Xrotation Yrotation Zrotation
												End Site
												{
													OFFSET -294.664337 0.000000 -0.113670
												}
											}
										}
									}
								}
								JOINT mixamorig:RightHandRing1
								{
									OFFSET -9.103600 -0.043076 -1.865134
									CHANNELS 6 Xposition Yposition Zposition Xrotation Yrotation Zrotation
									JOINT mixamorig:RightHandRing2
									{
										OFFSET -3.379288 0.000000 -0.001055
										CHANNELS 6 Xposition Yposition Zposition Xrotation Yrotation Zrotation
										JOINT mixamorig:RightHandRing3
										{
											OFFSET -2.889687 -0.000015 0.000379
											CHANNELS 6 Xposition Yposition Zposition Xrotation Yrotation Zrotation
											JOINT mixamorig:RightHandRing4
											{
												OFFSET -2.638809 -0.000015 0.000941
												CHANNELS 6 Xposition Yposition Zposition Xrotation Yrotation Zrotation
												End Site
												{
													OFFSET -263.880371 0.000000 0.516020
												}
											}
										}
									}
								}
								JOINT mixamorig:RightHandPinky1
								{
									OFFSET -8.076683 -0.486710 -3.806280
									CHANNELS 6 Xposition Yposition Zposition Xrotation Yrotation Zrotation
									JOINT mixamorig:RightHandPinky2
									{
										OFFSET -3.600014 -0.000015 -0.003747
										CHANNELS 6 Xposition Yposition Zposition Xrotation Yrotation Zrotation
										JOINT mixamorig:RightHandPinky3
										{
											OFFSET -2.099983 0.000000 -0.005739
											CHANNELS 6 Xposition Yposition Zposition Xrotation Yrotation Zrotation
											JOINT mixamorig:RightHandPinky4
											{
												OFFSET -2.115768 -0.000031 -0.003680
												CHANNELS 6 Xposition Yposition Zposition Xrotation Yrotation Zrotation
												End Site
												{
													OFFSET -211.577087 0.000000 -0.350686
												}
											}
										}
									}
								}
							}
						}
					}
				}
				JOINT mixamorig:LeftShoulder
				{
					OFFSET 4.570447 11.014725 -2.160855
					CHANNELS 6 Xposition Yposition Zposition Xrotation Yrotation Zrotation
					JOINT mixamorig:LeftArm
					{
						OFFSET 10.592371 -0.524597 -2.232119
						CHANNELS 6 Xposition Yposition Zposition Xrotation Yrotation Zrotation
						JOINT mixamorig:LeftForeArm
						{
							OFFSET 27.841532 -0.000031 0.000026
							CHANNELS 6 Xposition Yposition Zposition Xrotation Yrotation Zrotation
							JOINT mixamorig:LeftHand
							{
								OFFSET 28.328846 -0.000061 0.000022
								CHANNELS 6 Xposition Yposition Zposition Xrotation Yrotation Zrotation
								JOINT mixamorig:LeftHandThumb1
								{
									OFFSET 2.466141 -1.576172 2.681732
									CHANNELS 6 Xposition Yposition Zposition Xrotation Yrotation Zrotation
									JOINT mixamorig:LeftHandThumb2
									{
										OFFSET 3.217812 -1.872070 1.916482
										CHANNELS 6 Xposition Yposition Zposition Xrotation Yrotation Zrotation
										JOINT mixamorig:LeftHandThumb3
										{
											OFFSET 2.656029 -1.528778 1.514513
											CHANNELS 6 Xposition Yposition Zposition Xrotation Yrotation Zrotation
											JOINT mixamorig:LeftHandThumb4
											{
												OFFSET 2.020889 -1.154053 1.115139
												CHANNELS 6 Xposition Yposition Zposition Xrotation Yrotation Zrotation
												End Site
												{
													OFFSET 190.885437 -115.081749 130.048782
												}
											}
										}
									}
								}
								JOINT mixamorig:LeftHandIndex1
								{
									OFFSET 9.109314 -0.518021 2.259871
									CHANNELS 6 Xposition Yposition Zposition Xrotation Yrotation Zrotation
									JOINT mixamorig:LeftHandIndex2
									{
										OFFSET 3.699989 0.000000 -0.000322
										CHANNELS 6 Xposition Yposition Zposition Xrotation Yrotation Zrotation
										JOINT mixamorig:LeftHandIndex3
										{
											OFFSET 2.850006 0.000000 0.000352
											CHANNELS 6 Xposition Yposition Zposition Xrotation Yrotation Zrotation
											JOINT mixamorig:LeftHandIndex4
											{
												OFFSET 2.774864 -0.000031 -0.000027
												CHANNELS 6 Xposition Yposition Zposition Xrotation Yrotation Zrotation
												End Site
												{
													OFFSET 277.486267 0.000000 -0.009857
												}
											}
										}
									}
								}
								JOINT mixamorig:LeftHandMiddle1
								{
									OFFSET 9.533394 0.000061 0.000044
									CHANNELS 6 Xposition Yposition Zposition Xrotation Yrotation Zrotation
									JOINT mixamorig:LeftHandMiddle2
									{
										OFFSET 3.699989 -0.000015 -0.000231
										CHANNELS 6 Xposition Yposition Zposition Xrotation Yrotation Zrotation
										JOINT mixamorig:LeftHandMiddle3
										{
											OFFSET 2.949997 -0.000015 -0.000059
											CHANNELS 6 Xposition Yposition Zposition Xrotation Yrotation Zrotation
											JOINT mixamorig:LeftHandMiddle4
											{
												OFFSET 2.952896 0.000031 0.000063
												CHANNELS 6 Xposition Yposition Zposition Xrotation Yrotation Zrotation
												End Site
												{
													OFFSET 295.289337 0.000000 0.022810
												}
											}
										}
									}
								}
								JOINT mixamorig:LeftHandRing1
								{
									OFFSET 9.104523 -0.042999 -1.865074
									CHANNELS 6 Xposition Yposition Zposition Xrotation Yrotation Zrotation
									JOINT mixamorig:LeftHandRing2
									{
										OFFSET 3.150009 -0.000031 0.000043
										CHANNELS 6 Xposition Yposition Zposition Xrotation Yrotation Zrotation
										JOINT mixamorig:LeftHandRing3
										{
											OFFSET 2.949982 -0.000015 0.000040
											CHANNELS 6 Xposition Yposition Zposition Xrotation Yrotation Zrotation
											JOINT mixamorig:LeftHandRing4
											{
												OFFSET 2.644348 0.000000 0.000057
												CHANNELS 6 Xposition Yposition Zposition Xrotation Yrotation Zrotation
												End Site
												{
													OFFSET 264.434631 0.000000 0.012105
												}
											}
										}
									}
								}
								JOINT mixamorig:LeftHandPinky1
								{
									OFFSET 8.077789 -0.486847 -3.806259
									CHANNELS 6 Xposition Yposition Zposition Xrotation Yrotation Zrotation
									JOINT mixamorig:LeftHandPinky2
									{
										OFFSET 3.599953 0.000031 0.014727
										CHANNELS 6 Xposition Yposition Zposition Xrotation Yrotation Zrotation
										JOINT mixamorig:LeftHandPinky3
										{
											OFFSET 2.100021 0.000015 0.007705
											CHANNELS 6 Xposition Yposition Zposition Xrotation Yrotation Zrotation
											JOINT mixamorig:LeftHandPinky4
											{
												OFFSET 2.125504 0.000031 0.007517
												CHANNELS 6 Xposition Yposition Zposition Xrotation Yrotation Zrotation
												End Site
												{
													OFFSET 212.550781 0.000000 0.625752
												}
											}
										}
									}
								}
							}
						}
					}
				}
			}
		}
	}
	JOINT mixamorig:RightUpLeg
	{
		OFFSET -8.207787 -6.751648 -1.599560
		CHANNELS 6 Xposition Yposition Zposition Xrotation Yrotation Zrotation
		JOINT mixamorig:RightLeg
		{
			OFFSET -0.000002 -44.370117 0.345942
			CHANNELS 6 Xposition Yposition Zposition Xrotation Yrotation Zrotation
			JOINT mixamorig:RightFoot
			{
				OFFSET 0.000003 -44.423679 -3.043532
				CHANNELS 6 Xposition Yposition Zposition Xrotation Yrotation Zrotation
				JOINT mixamorig:RightToeBase
				{
					OFFSET -0.000002 -8.728671 10.710558
					CHANNELS 6 Xposition Yposition Zposition Xrotation Yrotation Zrotation
					JOINT mixamorig:RightToe_End
					{
						OFFSET -0.000001 -0.000679 9.278119
						CHANNELS 6 Xposition Yposition Zposition Xrotation Yrotation Zrotation
						End Site
						{
							OFFSET 0.000000 -0.067690 927.812134
						}
					}
				}
			}
		}
	}
	JOINT mixamorig:LeftUpLeg
	{
		OFFSET 8.207793 -6.751686 -1.599556
		CHANNELS 6 Xposition Yposition Zposition Xrotation Yrotation Zrotation
		JOINT mixamorig:LeftLeg
		{
			OFFSET -0.000004 -44.370014 0.346954
			CHANNELS 6 Xposition Yposition Zposition Xrotation Yrotation Zrotation
			JOINT mixamorig:LeftFoot
			{
				OFFSET -0.000001 -44.423672 -3.044401
				CHANNELS 6 Xposition Yposition Zposition Xrotation Yrotation Zrotation
				JOINT mixamorig:LeftToeBase
				{
					OFFSET -0.000002 -8.728669 10.710558
					CHANNELS 6 Xposition Yposition Zposition Xrotation Yrotation Zrotation
					JOINT mixamorig:LeftToe_End
					{
						OFFSET -0.000003 -0.000679 9.278133
						CHANNELS 6 Xposition Yposition Zposition Xrotation Yrotation Zrotation
						End Site
						{
							OFFSET 0.000000 -0.068021 927.813477
						}
					}
				}
			}
		}
	}
}
MOTION
Frames: 3
Frame Time: 0.033333
0.000006 104.270477 1.554256 0.000010 0.000003 -0.000113 -0.000005 10.181587 0.131522 0.000001 -0.000003 0.000084 -0.000000 9.893967 -1.470711 0.000001 0.000000 -0.000000 -0.000000 9.220802 -1.370642 0.000000 -0.000000 -0.000000 0.000001 16.740433 -2.049030 0.000000 -0.000000 -0.000000 0.000000 9.617859 1.685014 0.000000 0.000000 0.000000 0.000002 22.037384 7.501101 0.000000 -0.000000 0.000000 -4.569968 11.014880 -2.160881 0.000008 0.000001 -0.000038 -10.592863 -0.524664 -2.232033 71.367875 5.169519 -3.713707 -27.841522 0.000016 0.000540 -54.046454 116.153350 78.611871 -28.328842 0.000021 0.000025 -0.000318 -0.000043 0.000006 -2.464432 -1.573852 2.682381 -37.852130 -158.802335 13.164113 -3.215284 -1.872591 1.924658 156.249033 31.877135 4.161443 -2.654936 -1.527918 1.513106 149.661602 26.045513 -40.032285 -2.018816 -1.151998 1.108065 -0.000003 -0.000000 0.000007 -9.108388 -0.517557 2.260132 98.617960 17.621191 -20.491298 -3.700078 0.000311 0.001523 96.441984 15.869526 -17.706678 -2.850118 0.000351 -0.000252 97.402978 12.555086 -14.273991 -2.772188 -0.000001 -0.000016 0.000002 0.000001 0.000001 -9.532607 0.000266 0.000254 95.567495 17.580331 -19.503522 -3.700086 0.000324 0.003973 94.086450 14.310426 -15.253146 -2.950079 0.000338 -0.001796 96.300995 12.095470 -13.484265 -2.946619 0.000001 -0.000149 0.000002 -0.000001 0.000001 -9.103703 -0.042763 -1.864843 95.102796 19.303853 -21.016270 -3.379343 0.000323 -0.000807 93.605202 10.416632 -11.108140 -2.889758 0.000360 0.000649 98.045344 6.307770 -7.311645 -2.638818 -0.000018 0.000941 0.000001 -0.000000 0.000001 -8.076766 -0.486398 -3.805992 92.091775 19.327263 -19.872867 -3.600041 0.000286 -0.003490 95.263538 8.214773 -8.615501 -2.100006 0.000319 -0.005450 97.395164 4.324020 -4.675912 -2.115776 -0.000041 -0.003685 -0.000004 -0.000001 -0.000006 4.570446 11.014691 -2.160851 -0.000018 0.000010 -0.000021 10.592359 -0.524530 -2.232273 69.266922 9.309615 -6.437637 27.841854 0.000104 -0.000214 108.578015 -63.843247 81.824717 28.328825 -0.000029 0.000013 0.000020 -0.000089 -0.000001 2.465894 -1.576105 2.681888 -51.333742 168.749440 20.222594 3.217778 -1.871724 1.916354 153.873343 -31.147968 -1.524862 2.656104 -1.528596 1.514444 145.050296 -27.165307 37.411009 2.020876 -1.154088 1.115143 0.000001 0.000004 0.000003 9.109375 -0.517825 2.259731 92.648736 -14.945552 15.631588 3.700045 0.000180 -0.000465 90.345064 -14.911500 15.017907 2.850046 0.000189 0.000201 86.691083 -12.800407 12.085959 2.774870 -0.000027 -0.000032 0.000001 -0.000000 0.000001 9.533466 0.000228 -0.000102 94.329263 -14.752473 15.887807 3.700051 0.000187 -0.000361 93.047039 -13.931539 14.681879 2.950070 0.000167 -0.000203 92.528081 -16.414215 17.147333 2.952861 -0.000032 0.000066 0.000001 0.000000 -0.000001 9.104592 -0.042817 -1.865243 93.172058 -14.342093 15.151719 3.150054 0.000235 -0.000109 99.033734 -11.933390 13.963915 2.950030 0.000204 -0.000049 100.904611 -13.303727 16.079973 2.644321 0.000013 0.000050 0.000001 0.000001 0.000002 8.077852 -0.486702 -3.806404 84.470944 -16.670134 15.688217 3.599983 0.000218 0.014558 87.009964 -11.939513 11.812682 2.100047 0.000217 0.007548 88.585375 -10.849618 11.050544 2.125511 -0.000014 0.007514 -0.000000 -0.000001 0.000000 -8.207786 -6.751667 -1.599560 -0.077001 -0.000003 0.000080 -0.000002 -44.370110 0.345938 0.153719 -0.000000 -0.000000 0.000000 -44.423679 -3.043532 -0.076700 0.000000 -0.000002 -0.000006 -8.728667 10.710559 -0.000009 -0.000000 -0.000000 -0.000001 -0.000679 9.278123 0.000000 -0.000000 -0.000000 8.207792 -6.751710 -1.599556 -0.074518 -0.000003 0.000081 -0.000002 -44.370014 0.346960 0.148822 0.000002 0.000000 -0.000001 -44.423664 -3.044403 -0.074314 0.000000 -0.000002 -0.000004 -8.728671 10.710558 0.000007 -0.000000 -0.000000 0.000000 -0.000680 9.278137 -0.000000 0.000000 -0.000001 
0.000006 104.270477 1.554256 0.000010 0.000003 -0.000113 -0.000005 10.181587 0.131522 0.000001 -0.000003 0.000084 -0.000000 9.893967 -1.470711 0.000001 0.000000 -0.000000 -0.000000 9.220802 -1.370642 0.000000 -0.000000 -0.000000 0.000001 16.740433 -2.049030 0.000000 -0.000000 -0.000000 0.000000 9.617859 1.685014 0.000000 0.000000 0.000000 0.000002 22.037384 7.501101 0.000000 -0.000000 0.000000 -4.569968 11.014880 -2.160881 0.000008 0.000001 -0.000038 -10.592870 -0.524682 -2.232027 71.636165 8.032687 -5.801774 -27.841518 0.000013 0.000562 -51.891836 115.864529 75.667315 -28.328814 0.000021 0.000023 -0.000319 -0.000045 0.000007 -2.464390 -1.573774 2.682333 -47.308021 -162.490351 -8.542845 -3.215254 -1.872524 1.924638 148.641418 33.569908 26.374038 -2.654967 -1.527886 1.513070 148.630107 27.350179 -30.144029 -2.018838 -1.152000 1.108058 -0.000006 -0.000004 0.000004 -9.108372 -0.517532 2.260113 98.167611 15.664318 -18.089379 -3.700064 0.000318 0.001497 95.359365 14.017384 -15.352180 -2.850080 0.000365 -0.000271 95.196294 11.051828 -12.094049 -2.772161 -0.000017 -0.000019 0.000000 0.000001 -0.000001 -9.532576 0.000285 0.000255 94.620523 15.624795 -17.073560 -3.700068 0.000323 0.003977 94.653185 12.381799 -13.318480 -2.950074 0.000343 -0.001787 97.693773 11.305441 -12.914435 -2.946617 0.000014 -0.000153 -0.000001 -0.000001 0.000000 -9.103689 -0.042765 -1.864877 94.104448 17.990121 -19.254839 -3.379331 0.000332 -0.000801 94.723502 9.147063 -9.948958 -2.889744 0.000349 0.000652 102.140739 6.133475 -7.645191 -2.638828 -0.000016 0.000943 -0.000003 0.000001 -0.000002 -8.076744 -0.486387 -3.806012 89.679421 19.078581 -18.821696 -3.600009 0.000284 -0.003509 91.707201 7.294474 -7.154432 -2.100004 0.000327 -0.005460 95.211737 2.995933 -3.050527 -2.115758 -0.000055 -0.003676 0.000000 0.000001 -0.000004 4.570446 11.014691 -2.160851 -0.000018 0.000010 -0.000021 10.592356 -0.524554 -2.232262 69.540533 15.574445 -10.847045 27.841843 0.000104 -0.000209 108.328180 -63.789322 81.504661 28.328840 -0.000027 0.000018 0.000021 -0.000089 -0.000001 2.466013 -1.576154 2.681903 -37.405596 160.844439 -14.638029 3.217803 -1.871740 1.916380 160.449886 -30.988486 2.753239 2.656108 -1.528646 1.514468 143.959392 -26.436684 50.005031 2.020902 -1.154052 1.115149 0.000002 -0.000004 0.000001 9.109384 -0.517841 2.259750 93.086148 -17.928762 18.890729 3.700029 0.000164 -0.000471 90.548945 -14.019120 14.169976 2.850067 0.000205 0.000193 89.760174 -10.920591 10.873970 2.774870 -0.000017 -0.000028 -0.000000 -0.000001 0.000001 9.533472 0.000244 -0.000098 94.033741 -16.974632 18.184221 3.700048 0.000214 -0.000379 94.864361 -11.859496 12.900238 2.950058 0.000187 -0.000211 95.986014 -11.491638 12.752921 2.952856 -0.000033 0.000061 -0.000001 0.000003 0.000001 9.104599 -0.042834 -1.865214 94.640440 -16.479868 17.852272 3.150049 0.000238 -0.000097 99.225498 -11.220075 13.175570 2.950006 0.000212 -0.000067 101.309560 -9.994654 12.178510 2.644316 0.000052 0.000051 0.000004 0.000001 -0.000003 8.077862 -0.486696 -3.806401 89.019823 -19.213691 19.484093 3.599992 0.000196 0.014562 89.048748 -15.018370 15.283607 2.100032 0.000224 0.007552 90.218357 -10.379476 10.893470 2.125511 0.000018 0.007521 -0.000001 0.000001 0.000003 -8.207786 -6.751667 -1.599560 -0.077001 -0.000003 0.000080 -0.000002 -44.370110 0.345938 0.153719 -0.000000 -0.000000 0.000000 -44.423679 -3.043532 -0.076700 0.000000 -0.000002 -0.000006 -8.728667 10.710559 -0.000009 -0.000000 -0.000000 -0.000001 -0.000679 9.278123 0.000000 -0.000000 -0.000000 8.207792 -6.751710 -1.599556 -0.074518 -0.000003 0.000081 -0.000002 -44.370014 0.346960 0.148822 0.000002 0.000000 -0.000001 -44.423664 -3.044403 -0.074314 0.000000 -0.000002 -0.000004 -8.728671 10.710558 0.000007 -0.000000 -0.000000 0.000000 -0.000680 9.278137 -0.000000 0.000000 -0.000001 
0.000006 104.270477 1.554256 0.000010 0.000003 -0.000113 -0.000005 10.181587 0.131522 0.000001 -0.000003 0.000084 -0.000000 9.893967 -1.470711 0.000001 0.000000 -0.000000 -0.000000 9.220802 -1.370642 0.000000 -0.000000 -0.000000 0.000001 16.740433 -2.049030 0.000000 -0.000000 -0.000000 0.000000 9.617859 1.685014 0.000000 0.000000 0.000000 0.000002 22.037384 7.501101 0.000000 -0.000000 0.000000 -4.569968 11.014880 -2.160881 0.000008 0.000001 -0.000038 -10.592886 -0.524721 -2.231969 71.887604 18.771520 -13.668085 -27.841516 -0.000001 0.000535 -50.967869 113.299718 71.825559 -28.328838 0.000019 0.000022 -0.000318 -0.000044 0.000008 -2.464415 -1.573756 2.682310 -48.608216 -164.215178 -11.795001 -3.215266 -1.872523 1.924634 148.413508 33.509246 26.438969 -2.654966 -1.527895 1.513065 148.552038 27.436585 -29.429147 -2.018823 -1.151992 1.108064 0.000001 0.000000 0.000004 -9.108377 -0.517533 2.260120 98.540485 15.147596 -17.610142 -3.700082 0.000310 0.001509 96.077853 13.500080 -14.971312 -2.850083 0.000373 -0.000255 95.615326 10.829882 -11.938199 -2.772148 -0.000001 -0.000020 -0.000003 0.000000 -0.000000 -9.532584 0.000267 0.000247 95.008211 15.008770 -16.517175 -3.700075 0.000325 0.003973 94.904304 12.058166 -13.025159 -2.950068 0.000320 -0.001788 97.555694 11.256986 -12.828188 -2.946628 -0.000014 -0.000155 -0.000001 0.000000 0.000001 -9.103695 -0.042746 -1.864871 94.618010 17.390517 -18.778338 -3.379313 0.000322 -0.000796 94.694228 8.802053 -9.569735 -2.889735 0.000359 0.000663 101.743550 6.121759 -7.576970 -2.638822 -0.000017 0.000942 -0.000001 -0.000000 -0.000001 -8.076758 -0.486387 -3.806001 89.960312 18.738942 -18.573537 -3.600030 0.000295 -0.003511 91.387030 7.035447 -6.850568 -2.099986 0.000340 -0.005471 94.394867 2.928209 -2.934343 -2.115766 -0.000055 -0.003680 0.000004 -0.000001 -0.000004 4.570446 11.014691 -2.160851 -0.000018 0.000010 -0.000021 10.592359 -0.524537 -2.232296 69.571023 10.691351 -7.437776 27.841839 0.000094 -0.000225 108.682674 -65.453655 83.702090 28.328835 -0.000028 0.000019 0.000020 -0.000089 -0.000001 2.466039 -1.576160 2.681913 -32.887552 158.551886 -23.515832 3.217788 -1.871716 1.916377 160.215310 -30.653472 4.286435 2.656105 -1.528647 1.514465 143.533830 -26.669995 48.619161 2.020902 -1.154080 1.115147 0.000001 0.000000 0.000001 9.109394 -0.517821 2.259749 93.569924 -18.332057 19.476030 3.700061 0.000178 -0.000453 91.782122 -14.162830 14.623227 2.850048 0.000207 0.000215 90.930732 -10.982904 11.160351 2.774874 -0.000047 -0.000028 -0.000002 -0.000002 -0.000001 9.533471 0.000236 -0.000078 93.694821 -17.581933 18.724231 3.700057 0.000216 -0.000386 95.540495 -12.105567 13.323153 2.950055 0.000226 -0.000206 96.602582 -11.518837 12.921015 2.952875 -0.000013 0.000058 0.000002 -0.000001 -0.000001 9.104597 -0.042816 -1.865202 93.994181 -17.283316 18.513400 3.150083 0.000216 -0.000098 99.728951 -11.732342 13.897546 2.950025 0.000218 -0.000076 101.737901 -10.048540 12.337039 2.644322 0.000048 0.000053 0.000007 0.000000 0.000001 8.077852 -0.486689 -3.806382 88.172189 -19.775687 19.751329 3.600011 0.000206 0.014564 88.299388 -15.774452 15.825789 2.100047 0.000209 0.007545 89.445931 -10.828168 11.195380 2.125501 -0.000017 0.007509 0.000003 -0.000000 0.000001 -8.207786 -6.751667 -1.599560 -0.077001 -0.000003 0.000080 -0.000002 -44.370110 0.345938 0.153719 -0.000000 -0.000000 0.000000 -44.423679 -3.043532 -0.076700 0.000000 -0.000002 -0.000006 -8.728667 10.710559 -0.000009 -0.000000 -0.000000 -0.000001 -0.000679 9.278123 0.000000 -0.000000 -0.000000 8.207792 -6.751710 -1.599556 -0.074518 -0.000003 0.000081 -0.000002 -44.370014 0.346960 0.148822 0.000002 0.000000 -0.000001 -44.423664 -3.044403 -0.074314 0.000000 -0.000002 -0.000004 -8.728671 10.710558 0.000007 -0.000000 -0.000000 0.000000 -0.000680 9.278137 -0.000000 0.000000 -0.000001 
